<?xml version="1.0" standalone="no"?>
<!DOCTYPE svg PUBLIC "-//W3C//DTD SVG 20010904//EN"
 "http://www.w3.org/TR/2001/REC-SVG-20010904/DTD/svg10.dtd">
<svg version="1.0" xmlns="http://www.w3.org/2000/svg"
 width="564.000000pt" height="317.000000pt" viewBox="0 0 564.000000 317.000000"
 preserveAspectRatio="xMidYMid meet">

<g transform="translate(0.000000,317.000000) scale(0.100000,-0.100000)"
fill="#000000" stroke="none">
<path d="M2195 2189 c-243 -26 -451 -86 -820 -234 -136 -54 -271 -101 -330
-115 -209 -47 -458 -143 -632 -242 -86 -49 -223 -145 -223 -155 0 -8 140 -203
146 -203 2 0 -23 41 -56 90 -33 50 -63 97 -66 104 -8 20 155 126 301 197 140
68 371 147 535 184 73 17 186 55 311 105 493 199 722 250 1117 250 219 0 357
-13 882 -86 437 -60 642 -85 648 -79 3 3 1 5 -4 5 -15 0 -328 46 -619 90 -544
83 -624 92 -870 95 -126 2 -270 -1 -320 -6z"/>
<path d="M2260 2144 c-323 -37 -433 -65 -745 -189 -210 -84 -238 -95 -233
-100 2 -2 69 -22 149 -44 l145 -40 295 30 c414 41 855 97 845 106 -2 2 -102
-7 -222 -21 -183 -21 -489 -51 -849 -82 -65 -5 -156 12 -275 52 -19 7 158 79
365 149 227 77 389 106 637 112 212 6 469 -9 578 -33 92 -20 350 -104 350
-114 0 -4 -58 -27 -129 -51 -72 -24 -128 -45 -126 -47 9 -10 285 84 285 97 0
9 -34 25 -121 57 -153 55 -271 86 -389 100 -122 14 -490 26 -560 18z"/>
<path d="M2560 2103 c0 -17 64 -175 67 -166 2 6 -10 47 -27 92 -28 73 -40 95
-40 74z"/>
<path d="M1622 1890 c-23 -17 -42 -32 -42 -35 0 -2 10 -10 23 -16 20 -11 21
-11 9 4 -12 14 -8 19 29 37 40 21 50 22 170 14 141 -10 158 -3 36 15 -134 19
-178 15 -225 -19z"/>
<path d="M4482 1913 c92 -2 245 -2 340 0 95 1 20 3 -167 3 -187 0 -265 -2
-173 -3z"/>
<path d="M4693 1773 c103 -2 271 -2 375 0 103 1 18 2 -188 2 -206 0 -291 -1
-187 -2z"/>
<path d="M1064 1740 c-114 -17 -229 -102 -281 -209 -27 -53 -28 -63 -28 -198
l0 -141 -140 -9 -140 -10 158 -1 157 -2 -7 43 c-5 23 -8 85 -8 137 1 82 5 103
29 158 37 80 120 159 197 187 82 30 198 27 270 -7 76 -35 129 -85 170 -160 31
-59 34 -70 39 -188 l6 -125 8 69 c18 145 -14 254 -101 347 -26 28 -68 61 -93
74 -41 21 -146 47 -174 44 -6 -1 -34 -5 -62 -9z"/>
<path d="M1069 1663 c-15 -2 -51 -19 -80 -36 -90 -54 -141 -164 -124 -265 16
-97 109 -194 198 -209 32 -5 37 -3 37 14 0 14 -11 23 -40 32 -88 26 -144 107
-144 206 1 100 57 180 144 206 32 10 40 17 40 36 0 12 -1 22 -2 22 -2 -1 -15
-4 -29 -6z"/>
<path d="M1134 1655 c-8 -20 4 -35 27 -35 25 0 77 -26 107 -54 87 -79 87 -242
0 -323 -27 -26 -88 -53 -118 -53 -16 0 -21 -5 -18 -22 2 -19 8 -22 33 -20 80
10 154 62 192 135 54 105 30 244 -54 318 -58 50 -158 83 -169 54z"/>
<path d="M1580 1402 l0 -262 25 0 25 0 0 195 0 195 176 -192 c97 -106 181
-197 185 -202 5 -6 9 105 9 252 l0 262 -25 0 -25 0 0 -195 0 -195 -182 198
c-100 108 -183 199 -185 201 -1 2 -3 -113 -3 -257z"/>
<path d="M2829 1653 c-15 -2 -51 -19 -80 -36 -90 -54 -141 -164 -124 -265 16
-97 109 -194 198 -209 32 -5 37 -3 37 14 0 14 -11 23 -40 32 -88 26 -144 107
-144 206 1 100 57 180 144 206 32 10 40 17 40 36 0 12 -1 22 -2 22 -2 -1 -15
-4 -29 -6z"/>
<path d="M2894 1645 c-8 -20 4 -35 27 -35 25 0 77 -26 107 -54 87 -79 87 -242
0 -323 -27 -26 -88 -53 -118 -53 -16 0 -21 -5 -18 -22 2 -19 8 -22 33 -20 80
10 154 62 192 135 54 105 30 244 -54 318 -58 50 -158 83 -169 54z"/>
<path d="M3330 1402 l0 -262 25 0 25 0 0 195 0 195 176 -192 c97 -106 181
-197 185 -202 5 -6 9 105 9 252 l0 262 -25 0 -25 0 0 -195 0 -195 -182 198
c-100 108 -183 199 -185 201 -1 2 -3 -113 -3 -257z"/>
<path d="M4748 1653 c134 -2 350 -2 480 0 130 1 21 2 -243 2 -264 0 -371 -1
-237 -2z"/>
<path d="M497 1605 c-132 -66 -215 -119 -195 -123 21 -4 324 47 353 59 15 6
11 7 -15 4 -19 -3 -73 -10 -120 -15 -47 -6 -101 -13 -120 -16 l-35 -6 35 23
c19 12 76 44 125 70 113 61 91 64 -28 4z"/>
<path d="M2260 1395 l0 -255 25 0 25 0 0 100 0 100 96 0 c95 0 96 0 129 33 61
61 68 158 17 219 -39 46 -78 58 -192 58 l-100 0 0 -255z m201 205 c83 -23 102
-145 32 -200 -21 -16 -41 -20 -104 -20 l-79 0 0 115 0 115 58 0 c31 0 73 -5
93 -10z"/>
<path d="M3210 1395 l0 -255 25 0 25 0 0 255 0 255 -25 0 -25 0 0 -255z"/>
<path d="M3790 1630 c0 -17 8 -19 68 -22 l67 -3 3 -232 2 -233 25 0 25 0 0
235 0 235 65 0 c58 0 65 2 65 20 0 19 -7 20 -160 20 -152 0 -160 -1 -160 -20z"/>
<path d="M4533 1513 c93 -2 241 -2 330 0 89 1 14 3 -168 3 -181 0 -254 -2
-162 -3z"/>
<path d="M415 1419 c22 -24 62 -67 89 -96 l49 -51 -114 -37 c-104 -34 -120
-36 -187 -30 -80 7 -83 16 -18 47 34 16 36 18 11 13 -32 -6 -76 -34 -82 -52
-5 -13 81 -33 143 -33 47 0 259 64 270 81 7 12 -95 121 -161 172 l-40 31 40
-45z"/>
<path d="M4210 1139 c-83 -3 -43 -6 144 -7 143 -1 257 0 255 2 -8 7 -286 11
-399 5z"/>
<path d="M900 875 l0 -107 70 4 c60 3 74 8 98 31 21 22 27 37 27 72 0 35 -6
50 -27 72 -24 23 -38 28 -98 31 l-70 4 0 -107z m146 54 c55 -51 16 -127 -70
-136 l-46 -6 0 88 0 88 46 -6 c28 -3 54 -13 70 -28z"/>
<path d="M1190 876 c0 -88 3 -106 15 -106 10 0 15 11 15 35 0 32 2 35 29 35
22 0 37 -9 57 -35 30 -40 69 -52 40 -12 -28 37 -28 45 -7 66 26 26 27 62 2 92
-15 19 -30 24 -85 27 l-66 4 0 -106z m125 64 c21 -18 18 -57 -4 -70 -11 -5
-36 -10 -55 -10 l-36 0 0 51 0 52 40 -6 c23 -3 47 -11 55 -17z"/>
<path d="M1450 875 c0 -87 3 -105 15 -105 12 0 15 18 15 105 0 87 -3 105 -15
105 -12 0 -15 -18 -15 -105z"/>
<path d="M1551 973 c2 -27 88 -199 101 -201 10 -2 28 28 61 103 36 82 42 106
30 103 -10 -2 -31 -37 -52 -87 l-36 -85 -39 87 c-22 48 -46 87 -53 87 -7 0
-13 -3 -12 -7z"/>
<path d="M1830 875 c0 -87 3 -105 15 -105 12 0 15 18 15 105 0 87 -3 105 -15
105 -12 0 -15 -18 -15 -105z"/>
<path d="M1960 875 c0 -85 3 -105 15 -105 11 0 15 17 17 77 l3 76 60 -76 c33
-43 65 -77 72 -77 10 0 13 27 13 105 0 85 -3 105 -15 105 -11 0 -15 -17 -17
-77 l-3 -76 -60 76 c-33 43 -65 77 -72 77 -10 0 -13 -27 -13 -105z"/>
<path d="M2295 971 c-39 -17 -60 -51 -60 -96 0 -77 70 -122 149 -95 33 11 36
15 36 51 0 28 -4 39 -15 39 -10 0 -15 -10 -15 -30 0 -23 -6 -33 -25 -40 -47
-18 -105 23 -105 75 0 57 60 94 115 71 36 -16 55 -7 30 14 -19 15 -84 22 -110
11z"/>
<path d="M2662 968 c-30 -15 -40 -55 -18 -76 9 -10 38 -24 64 -32 56 -18 67
-45 26 -60 -19 -8 -37 -7 -61 1 -35 11 -50 8 -39 -9 11 -18 85 -25 117 -12 33
14 48 52 29 75 -7 8 -31 20 -54 26 -22 6 -47 16 -53 21 -36 29 12 64 66 48 39
-11 52 6 16 20 -33 13 -63 12 -93 -2z"/>
<path d="M2915 971 c-65 -28 -82 -118 -32 -168 22 -23 36 -28 76 -28 46 0 86
19 76 36 -3 4 -21 1 -40 -7 -55 -23 -115 14 -115 71 0 57 60 94 115 71 36 -16
55 -7 30 14 -19 15 -84 22 -110 11z"/>
<path d="M3130 875 c0 -87 3 -105 15 -105 11 0 15 12 15 50 l0 50 60 0 60 0 0
-50 c0 -38 4 -50 15 -50 12 0 15 18 15 105 0 87 -3 105 -15 105 -11 0 -15 -12
-15 -45 l0 -45 -60 0 -60 0 0 45 c0 33 -4 45 -15 45 -12 0 -15 -18 -15 -105z"/>
<path d="M3465 971 c-65 -28 -82 -118 -32 -168 23 -23 36 -28 77 -28 41 0 54
5 77 28 39 38 40 105 2 143 -28 28 -89 40 -124 25z m103 -44 c48 -44 10 -130
-58 -130 -68 0 -106 86 -57 130 41 38 73 38 115 0z"/>
<path d="M3742 960 c-90 -55 -45 -190 63 -190 74 0 132 77 106 142 -13 34 -66
68 -106 68 -16 0 -45 -9 -63 -20z m126 -32 c50 -48 10 -132 -63 -132 -73 0
-113 85 -62 131 42 38 84 39 125 1z"/>
<path d="M4010 875 l0 -105 70 0 c40 0 70 4 70 10 0 6 -25 10 -55 10 l-55 0 0
95 c0 78 -3 95 -15 95 -12 0 -15 -18 -15 -105z"/>
</g>
</svg>
